<?xml version="1.0" encoding="UTF-8" standalone="no"?>
<svg width="71px" height="20px" viewBox="0 0 71 20" version="1.1" xmlns="http://www.w3.org/2000/svg" xmlns:xlink="http://www.w3.org/1999/xlink">
    <!-- Generator: Sketch 3.8.3 (29802) - http://www.bohemiancoding.com/sketch -->
    <title>Logo Othello definitief</title>
    <desc>Created with Sketch.</desc>
    <defs></defs>
    <g id="Page-1" stroke="none" stroke-width="1" fill="none" fill-rule="evenodd">
        <g id="Header" transform="translate(-12.000000, -39.000000)">
            <g id="Logo-Othello-definitief" transform="translate(12.000000, 39.000000)">
                <g id="Layer_1">
                    <g id="Group" transform="translate(21.761935, 6.528190)" fill="#F26854">
                        <path d="M10.4333869,1.78545994 C11.6222444,2.96931751 12.2166731,4.39774481 12.2166731,6.07091988 C12.2166731,7.74445104 11.6222444,9.1727003 10.4333869,10.3564985 C9.24423134,11.5397626 7.80907647,12.1319881 6.12822041,12.1319881 C4.44712587,12.1319881 3.011971,11.5397626 1.82317315,10.3564985 C0.634077191,9.1727003 0.0397676997,7.74445104 0.0397676997,6.07091988 C0.0397676997,4.39774481 0.634017569,2.96931751 1.82317315,1.78545994 C3.011971,0.602433234 4.44712587,0.0102670623 6.12822041,0.0102670623 C7.80907647,0.0102670623 9.24423134,0.602433234 10.4333869,1.78545994 L10.4333869,1.78545994 Z M6.12822041,0.689851632 C4.63487472,0.689851632 3.36081779,1.21495549 2.30509566,2.26540059 C1.24937353,3.31649852 0.721780769,4.58504451 0.721780769,6.07091988 C0.721780769,7.55715134 1.24943316,8.82700297 2.30509566,9.87976261 C3.36081779,10.9334125 4.63487472,11.4603561 6.12822041,11.4603561 C7.62132762,11.4603561 8.89562304,10.9334125 9.95122592,9.87976261 C11.0068884,8.82706231 11.5345408,7.55715134 11.5345408,6.07091988 C11.5345408,4.58504451 11.0068884,3.31649852 9.95122592,2.26540059 C8.89562304,1.21495549 7.62138724,0.689851632 6.12822041,0.689851632 L6.12822041,0.689851632 Z" id="Shape"></path>
                        <polygon id="Shape" points="15.2944069 4.88255193 15.2944069 1.79709199 15.9620511 1.79709199 15.9620511 4.88255193 17.4451419 4.88255193 17.4451419 5.54676558 15.9620511 5.54676558 15.9620511 12.1319288 15.2944069 12.1319288 15.2944069 5.54676558 13.8116143 5.54676558 13.8116143 4.88255193 15.2944069 4.88255193"></polygon>
                        <path d="M19.2251489,0.320830861 L19.8929124,0.320830861 L19.8929124,5.25958457 C20.4561589,4.71744807 21.1338792,4.44706231 21.9245231,4.44706231 C22.784984,4.44706231 23.4844663,4.71578635 24.0234468,5.25192878 C24.5625466,5.78848665 24.8390722,6.46486647 24.8538584,7.28195846 L24.8538584,12.1320475 L24.1866315,12.1320475 L24.1866315,7.34124629 C24.1866315,6.72569733 23.9628115,6.20077151 23.5155292,5.76498516 C23.0678892,5.32937685 22.5379712,5.11145401 21.9245231,5.11145401 C21.3117905,5.11145401 20.7828264,5.32540059 20.3376309,5.75341246 C20.1396867,5.95074184 19.9915267,6.1548368 19.8929124,6.36658754 L19.8929124,12.1319288 L19.2251489,12.1319288 L19.2251489,0.320830861 L19.2251489,0.320830861 Z" id="Shape"></path>
                        <polygon id="Shape" points="36.0821223 0.320830861 36.0821223 12.1319881 35.4147166 12.1319881 35.4147166 0.320830861"></polygon>
                        <polygon id="Shape" points="38.9745517 0.320830861 38.9745517 12.1319881 38.3069075 12.1319881 38.3069075 0.320830861"></polygon>
                        <path d="M44.8257099,4.01952522 C45.9528589,4.01952522 46.9130074,4.41548961 47.7065727,5.20789318 C48.5002573,6.00017804 48.8969207,6.95721068 48.8969207,8.07958457 C48.8969207,9.19691395 48.5003169,10.1507418 47.7065727,10.9433234 C46.9129478,11.7358457 45.9528589,12.1319881 44.8257099,12.1319881 C43.7033307,12.1319881 42.7439573,11.7358457 41.9480667,10.9433234 C41.151878,10.1508012 40.754201,9.19691395 40.754201,8.07958457 C40.754201,6.95721068 41.151878,6.00017804 41.9480667,5.20789318 C42.7439573,4.41543027 43.7033307,4.01952522 44.8257099,4.01952522 L44.8257099,4.01952522 Z M42.4448947,5.70949555 C41.7872669,6.36379822 41.4585126,7.15382789 41.4585126,8.07958457 C41.4585126,9.00468843 41.7872669,9.79323442 42.4448947,10.4449852 C43.1025224,11.0975074 43.8960282,11.4233234 44.8257099,11.4233234 C45.7546166,11.4233234 46.5486589,11.0975074 47.2060482,10.4449852 C47.8635568,9.79323442 48.1921918,9.00462908 48.1921918,8.07958457 C48.1921918,7.15382789 47.8635568,6.36385757 47.2060482,5.70949555 C46.5487186,5.05543027 45.7546166,4.72824926 44.8257099,4.72824926 C43.8960282,4.72824926 43.1025821,5.05543027 42.4448947,5.70949555 L42.4448947,5.70949555 Z" id="Shape"></path>
                        <path d="M26.8198852,8.20183976 C26.8198852,9.18866469 27.0855001,9.97002967 27.6167298,10.5458754 C28.1715697,11.1334125 28.9329989,11.4271217 29.9010174,11.4271217 C30.3968318,11.4271217 30.8452469,11.3447478 31.2466204,11.180178 C31.7540014,10.968724 32.2086172,10.5399407 32.6100504,9.8937092 L33.2649952,10.1932344 C32.804775,11.0630267 32.0965283,11.6502671 31.1401956,11.9553709 C30.7740585,12.0730564 30.361178,12.1319881 29.9009578,12.1319881 C28.8028446,12.1319881 27.9000523,11.7738872 27.1918652,11.0569139 C26.4715154,10.3403561 26.111579,9.44160237 26.111579,8.36017804 C26.111579,7.26783383 26.4657917,6.36854599 27.1740383,5.66373887 C27.8939708,4.94712166 28.8028446,4.58866469 29.9009578,4.58866469 C30.9869082,4.58866469 31.8842153,4.92326409 32.5925216,5.59311573 C33.3120367,6.26272997 33.6722713,7.13246291 33.6722713,8.20189911 L26.8198852,8.20189911 L26.8198852,8.20183976 Z M31.8132655,5.8927003 C31.2583659,5.4935905 30.6210692,5.29347181 29.901077,5.29347181 C28.3897256,5.29347181 27.3982161,6.0337092 26.92631,7.51418398 L32.8578979,7.51418398 C32.739668,6.844273 32.3915367,6.30385757 31.8132655,5.8927003 L31.8132655,5.8927003 Z" id="Shape"></path>
                    </g>
                    <ellipse id="Oval" fill="#53BDE9" cx="10.0259916" cy="9.97988131" rx="10.0259916" ry="9.97982196"></ellipse>
                    <g id="Group" transform="translate(2.861843, 4.688427)">
                        <path id="Shape" fill="#FBC7BE"></path>
                        <path d="M10.9541828,0.0291394659 C10.9254451,0.0274777448 10.9002251,0.0291394659 10.8732165,0.0291394659 C10.1659834,0.0186350148 9.45541154,0.197507418 8.83117194,0.579050445 C8.58201269,0.731097923 8.34525477,0.910326409 8.12942407,1.1251632 C8.1133262,1.13964392 8.0996132,1.15744807 8.08351533,1.17495549 L8.07731467,1.17169139 L7.31982048,1.92759644 L6.56131272,1.17169139 L6.55511206,1.17495549 C6.53907382,1.15744807 6.52542044,1.13964392 6.50836862,1.1251632 C6.29313414,0.912106825 6.06215953,0.732997033 5.81848548,0.584451039 C5.19025122,0.197507418 4.47884463,0.018694362 3.7673188,0.0291988131 C3.74001205,0.0291988131 3.71306302,0.027537092 3.6842061,0.0291988131 C1.67817308,0.027537092 0.0508573431,1.64658754 0.0525267518,3.64504451 C0.0508573431,4.02658754 0.112923573,4.39388724 0.22185249,4.74320475 C0.332331572,5.08326409 0.488957879,5.3988724 0.687796378,5.68902077 C0.761429225,5.7927003 0.840547272,5.89133531 0.921632837,5.99347181 C1.04922336,6.13317507 1.18522054,6.26902077 1.32914742,6.39275964 L7.32691547,12.3635015 L13.4676564,6.25068249 L13.5713387,6.14724036 C13.7124633,6.00249258 13.8429753,5.8464095 13.9554219,5.67982196 C14.1515178,5.39323442 14.3089192,5.07620178 14.4133765,4.7431454 C14.5258231,4.39382789 14.5859814,4.02652819 14.5859814,3.64498516 C14.5859814,1.64652819 12.9604543,0.0274777448 10.9541828,0.0291394659 L10.9541828,0.0291394659 Z" id="Shape" fill="#A6DBEF"></path>
                    </g>
                    <g id="Group" transform="translate(10.433804, 7.596439)" fill="#F26854">
                        <path id="Shape"></path>
                        <path d="M5.72577368,0.0527596439 L5.68350186,0.0527596439 C5.31199881,0.0458753709 4.9392437,0.140652819 4.61186073,0.341543027 C4.48152761,0.421839763 4.35721629,0.514836795 4.24405423,0.627596439 C4.23499172,0.634836795 4.22789674,0.643857567 4.21972856,0.652581602 L4.21621087,0.651275964 L3.81936858,1.04878338 L3.42169158,0.651275964 L3.4181739,0.652581602 C3.41012497,0.643916914 3.40285112,0.634836795 3.39307315,0.627596439 C3.28062655,0.516557864 3.15995215,0.421780415 3.03122882,0.343086053 C2.7020572,0.140652819 2.32870587,0.0458160237 1.9552353,0.0527002967 L1.91212878,0.0527002967 C0.859685851,0.0527002967 0.00596217387,0.899940653 0.00691612169,1.94973294 C0.00596217387,2.15020772 0.0383963997,2.34379822 0.0956928906,2.52462908 C0.153466355,2.70367953 0.236221329,2.86818991 0.339605424,3.02255193 C0.379194258,3.07626113 0.420690988,3.12818991 0.461949232,3.1820178 C0.529560283,3.25525223 0.600390909,3.32718101 0.6768856,3.39133531 L3.82294589,6.52379822 L7.04454692,3.3179822 L7.09844497,3.26249258 C7.17315101,3.1872997 7.24076206,3.10498516 7.30080115,3.01703264 C7.4026947,2.86813056 7.48544967,2.70172107 7.54030167,2.52456973 C7.59968493,2.34373887 7.6311652,2.15014837 7.6311652,1.94967359 C7.63122482,0.9 6.77821661,0.0527596439 5.72577368,0.0527596439 L5.72577368,0.0527596439 Z" id="Shape"></path>
                    </g>
                    <path d="M1.2459751,10.9792878 C1.2476445,10.4976855 1.25634928,9.88059347 1.58009532,9.4894362 C1.73713898,9.29970326 2.01104125,9.25175074 2.23235714,9.35459941 C2.45313644,9.45721068 2.54376148,9.71590504 2.60248889,9.93246291 C2.72203048,10.3733531 2.71237176,10.8587537 2.72441535,11.3128783 C2.73806873,11.8286647 2.68768836,12.3718101 2.9250425,12.8486647 C3.14898175,13.298457 3.7445433,13.3796439 4.07609979,13.0108605 C4.38756375,12.6643917 4.48844373,12.107003 4.54168595,11.6595252 C4.56183809,11.4902671 4.71476785,10.2526409 5.09563152,10.5461128 C5.28648071,10.6931751 5.36953379,10.9876558 5.44578999,11.2037982 C5.53081059,11.4449258 5.61618892,11.6849258 5.6984073,11.9268843 C5.77985059,12.1662908 5.8835328,12.3910979 6.09101645,12.5446884 C6.32634345,12.7189318 6.61729754,12.5334718 6.79264507,12.3730564 C7.2189405,11.9831454 7.19449559,11.2551335 7.20445242,10.7297329 C7.20999724,10.4366172 7.23795984,10.1547181 7.27134801,9.86373887 C7.30545164,9.56617211 7.30676332,9.27976261 7.39577858,8.99080119 C7.47358495,8.73833828 7.56570053,8.49068249 7.64201636,8.23709199 C7.71725899,7.98718101 7.81444243,7.70089021 8.0310482,7.53596439 C9.06077525,6.75192878 9.02047096,9.36652819 9.02494259,9.76777448 C9.03668807,10.8252226 8.97199849,11.8835608 9.18401339,12.9259941 C9.26652987,13.331632 9.37939383,13.7705638 9.64900333,14.095905 C9.89255813,14.3897923 10.301444,14.3219585 10.5247274,14.0437982 C10.8330911,13.6594659 10.8571186,13.0785757 10.8854986,12.6097923 C10.9198407,12.0432641 10.891103,11.4748961 10.9240738,10.9084273 C10.9499497,10.4633828 11.0102272,9.95181009 11.1853363,9.54077151 C11.3888849,9.06290801 11.6314261,10.0576855 11.67495,10.207181 C11.7916894,10.6080119 11.9304888,11.064451 12.37163,11.215727 C12.7637622,11.3502671 12.8935587,10.8089614 13.008271,10.5659941 C13.1891037,10.1831454 13.4662851,10.4373887 13.6323913,10.6827893 C13.8379074,10.9864095 14.1242707,11.1427893 14.4822396,10.9669436 C14.6840592,10.8677745 14.8153462,10.7480712 14.9319067,10.5578635 C14.9919458,10.4599407 15.0477518,10.3026706 15.1911421,10.3222552 C15.3114587,10.3385757 15.4123387,10.5056973 15.4902047,10.585816 C15.8497238,10.9560237 16.538176,10.9633828 16.8731905,10.5626706 C17.0461532,10.3558457 16.7489388,10.0566172 16.574426,10.2652226 C16.3222261,10.5668843 15.9271724,10.4449852 15.697271,10.1905045 C15.5045139,9.97721068 15.2758645,9.8474184 14.9804388,9.92409496 C14.690856,9.99928783 14.34189,10.9462908 14.0216616,10.5055786 C13.7787627,10.1712166 13.5261454,9.84617211 13.0565049,9.96249258 C12.6624649,10.0600593 12.6166158,10.5240356 12.4387045,10.8135905 C12.4302978,10.8272997 12.465892,10.807003 12.484017,10.8101484 C12.4478266,10.8037982 12.4108611,10.7637982 12.3856411,10.7417804 C12.3077751,10.6739466 12.2615087,10.6051039 12.2187003,10.5134125 C12.1149584,10.291276 12.0673803,10.0360831 11.9955957,9.80261128 C11.894835,9.47495549 11.7135253,8.91946588 11.2705954,8.97020772 C10.7784179,9.02652819 10.6851695,9.67465875 10.6147563,10.0619585 C10.5349227,10.5008309 10.4928894,10.9396439 10.487285,11.3853412 C10.4798323,11.9807715 10.5007595,12.5849852 10.4061994,13.1750148 C10.3818737,13.3267062 10.1960924,14.1326409 9.93256432,13.7792878 C9.68173566,13.4430267 9.61114352,12.9498516 9.5416842,12.5481306 C9.467634,12.1195846 9.45547116,11.6916914 9.45046294,11.2573294 C9.44259287,10.5740653 9.45910809,9.89068249 9.43543826,9.20765579 C9.41713439,8.67922849 9.3903046,8.1104451 9.1920027,7.61341246 C9.04270987,7.23910979 8.76809214,6.98551929 8.34889169,6.99970326 C7.78582399,7.01869436 7.47018651,7.46813056 7.29346768,7.94694362 C7.11054818,8.44255193 6.91665829,8.9789911 6.87754643,9.50635015 C6.85584411,9.79875371 6.80701391,10.0886647 6.79121415,10.3810682 C6.77386422,10.7024332 6.78233051,11.0239763 6.7540698,11.3449852 C6.72765737,11.6456973 6.65933086,11.9630861 6.4040902,12.1530564 C6.19046551,12.3121662 6.04886388,11.5977448 5.99210398,11.4767953 C5.7957696,11.0587537 5.74562772,10.5191098 5.35450911,10.2176855 C4.938409,9.89703264 4.49088823,10.2458754 4.32698807,10.6510979 C4.14728814,11.0952522 4.16433996,11.5778042 4.04712362,12.0360831 C3.98380534,12.2836795 3.91434601,12.5611276 3.73917734,12.755905 C3.51577469,13.0043917 3.28480007,12.6623145 3.22541682,12.4675371 C3.0841133,12.004095 3.15029343,11.4637389 3.1326454,10.9835015 C3.10354999,10.1935312 3.07463344,9.01905045 2.07137845,8.88646884 C0.978035002,8.74195846 0.826178433,10.2328783 0.823614699,10.9791691 C0.822481886,11.2505045 1.24502115,11.2504451 1.2459751,10.9792878 L1.2459751,10.9792878 L1.2459751,10.9792878 Z" id="Shape" fill="#53BDE9"></path>
                    <polygon id="Shape" fill="#53BDE9" points="14.7245423 18.0502077 19.5880068 18.6153116 18.8814296 14.7147181"></polygon>
                </g>
            </g>
        </g>
    </g>
</svg>